<?xml version="1.0" encoding="UTF-8"?>
<svg width="310px" height="310px" viewBox="0 0 310 310" version="1.1" xmlns="http://www.w3.org/2000/svg" xmlns:xlink="http://www.w3.org/1999/xlink">
    <!-- Generator: Sketch 53 (72520) - https://sketchapp.com -->
    <title>Artboard</title>
    <desc>Created with Sketch.</desc>
    <g id="Artboard" stroke="none" stroke-width="1" fill="none" fill-rule="evenodd">
        <g id="bispo_white" transform="translate(89.000000, 6.000000)" stroke="#000000" stroke-width="10">
            <path d="M124.873,255.08 L121.463,255.08 C123.677,251.743 129.783,240.544 120.751,229.48 C111.851,218.575 95.614,189.934 96.303,165.08 L99.873,165.08 C104.291,165.08 107.54,161.498 107.54,157.08 L107.54,156.08 C107.54,151.662 104.291,148.08 99.873,148.08 L95.54,148.08 L95.54,143.795 C108.54,134.824 116.051,120.293 116.051,103.881 C116.051,93.549 109.04,77.771 100.232,62.16 L81.679,80.755 C78.568,83.866 73.497,83.866 70.385,80.756 L69.464,79.823 C66.353,76.713 66.358,71.621 69.469,68.51 L91.145,46.836 C86.701,39.767 82.276,33.158 78.442,27.612 C81.323,24.682 83.105,20.668 83.105,16.233 C83.106,7.268 75.841,0 66.874,0 C57.907,0 50.64,7.268 50.64,16.233 C50.64,20.667 52.421,24.681 55.302,27.612 C40.717,48.713 17.362,85.199 17.362,103.881 C17.362,120.734 25.54,135.605 38.54,144.506 L38.54,148.08 L33.873,148.08 C29.455,148.08 25.54,151.662 25.54,156.08 L25.54,157.08 C25.54,161.498 29.455,165.08 33.873,165.08 L37.444,165.08 C38.133,189.935 21.897,218.575 12.996,229.48 C3.965,240.544 10.07,251.743 12.284,255.08 L8.873,255.08 C4.455,255.08 0.54,258.662 0.54,263.08 L0.54,272.08 C0.54,276.158 3.54,279.518 7.54,280.011 L7.54,297.08 L125.54,297.08 L125.54,280.011 C129.54,279.518 132.54,276.158 132.54,272.08 L132.54,263.08 C132.54,258.662 129.291,255.08 124.873,255.08 Z" id="Path"></path>
        </g>
    </g>
</svg>