<?xml version="1.0" encoding="UTF-8"?>
<svg width="310px" height="310px" viewBox="0 0 310 310" version="1.1" xmlns="http://www.w3.org/2000/svg" xmlns:xlink="http://www.w3.org/1999/xlink">
    <!-- Generator: Sketch 53 (72520) - https://sketchapp.com -->
    <title>Artboard</title>
    <desc>Created with Sketch.</desc>
    <g id="Artboard" stroke="none" stroke-width="1" fill="none" fill-rule="evenodd">
        <g id="cavalo_white" transform="translate(66.000000, 6.000000)" fill-rule="nonzero" stroke="#000000" stroke-width="10">
            <path d="M150.952,116 C165.864,116 177.989,103.912 177.989,89 C177.989,74.088 167.044,63.987 151.025,58.334 C139.692,54.334 133.007,47.511 128.016,38.922 C123.025,30.333 112.025,17 97.525,17 C91.693,17 77.727,17 77.727,17 L77.727,0 C-29.273,40.03 5.358,184 5.358,184 L26.727,184 L26.727,198 L20.358,198 C15.94,198 11.727,201.582 11.727,206 L11.727,207 C11.727,210.289 14.029,213.111 16.867,214.341 C8.097,229.391 15.448,244.116 17.628,248 L12.357,248 C7.939,248 3.726,251.582 3.726,256 L3.726,274 C3.726,278.418 7.726,282 11.726,282 L11.726,298 L143.726,298 L143.726,281.931 C147.726,281.438 150.726,278.078 150.726,274 L150.726,256 C150.726,251.582 147.775,248 143.357,248 L139.087,248 C141.268,244.116 147.989,229.391 139.217,214.341 C142.055,213.111 143.725,210.289 143.725,207 L143.725,206 C143.725,201.582 140.774,198 136.356,198 L128.725,198 L128.725,184 L152.857,184 C136.356,130 86.523,101 86.523,101 L126.705,101 C131.146,109.889 140.351,116 150.952,116 Z" id="Path"></path>
        </g>
    </g>
</svg>