<?xml version="1.0" encoding="UTF-8"?>
<svg width="310px" height="310px" viewBox="0 0 310 310" version="1.1" xmlns="http://www.w3.org/2000/svg" xmlns:xlink="http://www.w3.org/1999/xlink">
    <!-- Generator: Sketch 53 (72520) - https://sketchapp.com -->
    <title>Artboard</title>
    <desc>Created with Sketch.</desc>
    <g id="Artboard" stroke="none" stroke-width="1" fill="none" fill-rule="evenodd">
        <g id="peao_white" transform="translate(73.000000, 7.000000)" fill-rule="nonzero" stroke="#000000" stroke-width="10">
            <path d="M157.333,247 L151.407,247 C154.014,243.189 162.205,228.976 150.68,214.752 C137.346,198.292 110.817,149.004 123.356,116 L124.333,116 C128.751,116 132,112.418 132,108 L132,107 C132,102.582 128.751,99 124.333,99 L123.108,99 C134.025,88.534 140.833,73.816 140.833,57.5 C140.833,25.744 115.089,0 83.333,0 C51.577,0 25.833,25.744 25.833,57.5 C25.833,73.816 32.641,88.534 43.558,99 L41.333,99 C36.915,99 33,102.582 33,107 L33,108 C33,112.418 36.915,116 41.333,116 L43.312,116 C55.851,149.004 29.322,198.292 15.988,214.752 C4.464,228.976 12.654,243.189 15.261,247 L8.333,247 C3.915,247 0,250.582 0,255 L0,273 C0,277.418 3.915,281 8.333,281 L9,281 L9,297 L157,297 L157,281 C162,281 165,277.418 165,273 L165,255 C165,250.582 161.751,247 157.333,247 Z" id="Path"></path>
        </g>
    </g>
</svg>