<?xml version="1.0" encoding="UTF-8"?>
<svg width="310px" height="310px" viewBox="0 0 310 310" version="1.1" xmlns="http://www.w3.org/2000/svg" xmlns:xlink="http://www.w3.org/1999/xlink">
    <!-- Generator: Sketch 53 (72520) - https://sketchapp.com -->
    <title>Artboard</title>
    <desc>Created with Sketch.</desc>
    <g id="Artboard" stroke="none" stroke-width="1" fill="none" fill-rule="evenodd">
        <g id="rainha_white" transform="translate(89.000000, 6.000000)" fill-rule="nonzero" stroke="#000000" stroke-width="10">
            <path d="M125.218,255.77 L121.849,255.77 C124.063,252.433 130.169,241.234 121.137,230.17 C112.237,219.265 96.008,190.624 96.699,165.77 L100.218,165.77 C104.636,165.77 107.885,162.188 107.885,157.77 L107.885,156.77 C107.885,152.352 104.303,148.77 99.885,148.77 C104.303,148.77 107.885,145.188 107.885,140.77 L107.885,139.77 C107.885,135.352 104.636,131.77 100.218,131.77 L95.592,131.77 C93.528,110.029 96.67,88.716 101.551,77.104 C103.411,72.679 105.669,69.314 107.847,66.77 L109.218,66.77 C113.636,66.77 116.885,63.188 116.885,58.77 L116.885,57.77 C116.885,53.352 113.636,49.77 109.218,49.77 L99.418,49.77 C97.615,38.874 90.42,29.804 80.663,25.387 C82.446,22.78 83.492,19.63 83.492,16.233 C83.492,7.267 76.227,0 67.26,0 C58.293,0 51.026,7.267 51.026,16.232 C51.026,19.617 52.063,22.757 53.835,25.359 C44.047,29.765 36.825,38.849 35.019,49.769 L24.219,49.769 C19.801,49.769 15.886,53.351 15.886,57.769 L15.886,58.769 C15.886,63.187 19.801,66.769 24.219,66.769 L26.59,66.769 C28.768,69.313 31.026,72.678 32.886,77.103 C37.767,88.715 40.909,110.028 38.845,131.769 L34.219,131.769 C29.801,131.769 25.886,135.351 25.886,139.769 L25.886,140.769 C25.886,145.187 29.468,148.769 33.886,148.769 C29.468,148.769 25.886,152.351 25.886,156.769 L25.886,157.769 C25.886,162.187 29.801,165.769 34.219,165.769 L37.821,165.769 C38.513,190.623 22.285,219.264 13.383,230.169 C4.352,241.232 10.457,252.432 12.671,255.769 L9.219,255.769 C4.801,255.769 0.886,259.351 0.886,263.769 L0.886,272.769 C0.886,276.847 3.886,280.207 7.886,280.7 L7.886,297.769 L125.886,297.769 L125.886,280.7 C129.886,280.207 132.886,276.847 132.886,272.769 L132.886,263.769 C132.885,259.352 129.636,255.77 125.218,255.77 Z" id="Path"></path>
        </g>
    </g>
</svg>