<?xml version="1.0" encoding="UTF-8"?>
<svg width="310px" height="310px" viewBox="0 0 310 310" version="1.1" xmlns="http://www.w3.org/2000/svg" xmlns:xlink="http://www.w3.org/1999/xlink">
    <!-- Generator: Sketch 53 (72520) - https://sketchapp.com -->
    <title>Artboard</title>
    <desc>Created with Sketch.</desc>
    <g id="Artboard" stroke="none" stroke-width="1" fill="none" fill-rule="evenodd">
        <g id="rei_white" transform="translate(99.000000, 6.000000)" fill-rule="nonzero" stroke="#000000" stroke-width="10">
            <path d="M104.332,256 L102.691,256 C104.569,252.663 109.752,241.464 102.086,230.4 C94.532,219.495 80.595,190.853 81.182,165.999 C85.591,165.989 88.998,162.412 88.998,158 L88.998,157 C88.998,152.582 85.416,149 80.998,149 C85.416,149 88.998,145.418 88.998,141 L88.998,140 C88.998,135.582 85.749,132 81.331,132 L77.781,132 C76.775,115.858 79.088,102.139 82.579,91.276 C83.7,87.789 85.011,85.09 86.331,83 L88.331,83 C92.749,83 95.998,79.418 95.998,75 L95.998,74 C95.998,69.657 92.535,66.13 88.221,66.012 C86.086,52.771 75.999,42.203 62.999,39.363 L62.999,27 L74.999,27 L74.999,12 L62.999,12 L62.999,0 L47.999,0 L47.999,12 L35.999,12 L35.999,27 L47.999,27 L47.999,39.595 C35.999,42.745 26.196,53.107 24.111,66 L23.332,66 C18.914,66 14.999,69.582 14.999,74 L14.999,75 C14.999,79.418 18.914,83 23.332,83 L26.332,83 C27.652,85.091 28.963,87.789 30.084,91.276 C33.575,102.138 35.888,115.858 34.882,132 L30.332,132 C25.914,132 21.999,135.582 21.999,140 L21.999,141 C21.999,145.418 25.581,149 29.999,149 C25.581,149 21.999,152.582 21.999,157 L21.999,158 C21.999,162.418 25.914,166 30.332,166 L31.385,166 C31.973,190.855 18.202,219.495 10.648,230.4 C2.984,241.463 8.166,252.663 10.044,256 L8.333,256 C3.915,256 0,259.582 0,264 L0,273 C0,276.727 3,279.849 6,280.737 L6,298 L106,298 L106,280.737 C110,279.848 112,276.726 112,273 L112,264 C111.999,259.582 108.75,256 104.332,256 Z" id="Path"></path>
        </g>
    </g>
</svg>